<?xml version="1.0" encoding="UTF-8"?>
<!DOCTYPE svg PUBLIC "-//W3C//DTD SVG 1.1//EN" "http://www.w3.org/Graphics/SVG/1.1/DTD/svg11.dtd">
<!-- Creator: CorelDRAW 2020 (64 Bit) -->
<svg xmlns="http://www.w3.org/2000/svg" xml:space="preserve" width="100px" height="100px" version="1.1" style="shape-rendering:geometricPrecision; text-rendering:geometricPrecision; image-rendering:optimizeQuality; fill-rule:evenodd; clip-rule:evenodd"
viewBox="0 0 100 100"
 xmlns:xlink="http://www.w3.org/1999/xlink"
 xmlns:xodm="http://www.corel.com/coreldraw/odm/2003">
 <defs>
  <style type="text/css">
   <![CDATA[
    .fil0 {fill:#00A0E3}
   ]]>
  </style>
 </defs>
 <g id="Camada_x0020_1">
  <metadata id="CorelCorpID_0Corel-Layer"/>
  <g id="_904980576">
   <path class="fil0" d="M43.9 63.09l3.55 0 0.87 -3.05c0.28,-1.01 0.59,-2.03 0.87,-3.04 0.53,-1.94 5.21,-17.98 5.22,-18.4l-3.36 0c-0.24,0 -0.44,1 -0.54,1.38l-6.16 21.56c-0.15,0.51 -0.33,1.05 -0.45,1.55z"/>
   <path class="fil0" d="M31.66 50.84c0.12,0.19 0.26,0.34 0.41,0.53l1.32 1.66c1.18,1.48 3.22,4.12 4.37,5.44l0.86 1.14 3.54 0c-0.05,-0.2 -0.25,-0.39 -0.38,-0.55l-6.52 -8.16c0.08,-0.29 1.52,-1.99 1.73,-2.25l4.86 -6.08c0.56,-0.7 0.56,-0.49 -2.92,-0.49 -0.38,0 -0.64,0.51 -1.01,0.97l-5.78 7.22c-0.13,0.15 -0.35,0.48 -0.48,0.57z"/>
   <path class="fil0" d="M63.11 50.84c-0.45,0.68 -4.57,5.77 -5.2,6.54 -0.31,0.38 -0.6,0.74 -0.89,1.11 -0.29,0.37 -0.6,0.72 -0.87,1.12 0.34,0 3.33,0.04 3.52,-0.03 0.07,-0.03 6.82,-8.41 6.99,-8.74l-6.63 -8.29c-0.12,-0.14 -0.33,-0.47 -0.52,-0.47l-3.17 0c-0.33,0 -0.07,0.23 0.14,0.48l6.63 8.28z"/>
  </g>
 </g>
</svg>
