<?xml version="1.0" encoding="UTF-8"?>
<!DOCTYPE svg PUBLIC "-//W3C//DTD SVG 1.1//EN" "http://www.w3.org/Graphics/SVG/1.1/DTD/svg11.dtd">
<!-- Creator: CorelDRAW 2020 (64 Bit) -->
<svg xmlns="http://www.w3.org/2000/svg" xml:space="preserve" width="100px" height="100px" version="1.1" style="shape-rendering:geometricPrecision; text-rendering:geometricPrecision; image-rendering:optimizeQuality; fill-rule:evenodd; clip-rule:evenodd"
viewBox="0 0 100 100"
 xmlns:xlink="http://www.w3.org/1999/xlink"
 xmlns:xodm="http://www.corel.com/coreldraw/odm/2003">
 <defs>
  <style type="text/css">
   <![CDATA[
    .fil0 {fill:#00A0E3}
   ]]>
  </style>
 </defs>
 <g id="Camada_x0020_1">
  <metadata id="CorelCorpID_0Corel-Layer"/>
  <g id="_905013552">
   <path class="fil0" d="M35.7 82.21l9.08 0 2.23 -7.8c0.72,-2.59 1.51,-5.2 2.23,-7.8 1.37,-4.95 13.35,-46.04 13.37,-47.14l-8.6 0c-0.61,0 -1.13,2.57 -1.4,3.54l-15.77 55.24c-0.38,1.29 -0.84,2.69 -1.14,3.96z"/>
   <path class="fil0" d="M4.33 50.84c0.32,0.47 0.67,0.86 1.05,1.35l3.39 4.25c3.02,3.79 8.24,10.56 11.2,13.95l2.2 2.91 9.07 0c-0.14,-0.52 -0.64,-1.01 -0.99,-1.4l-16.68 -20.9c0.2,-0.75 3.87,-5.1 4.42,-5.77l12.46 -15.57c1.42,-1.79 1.41,-1.27 -7.49,-1.27 -0.96,0 -1.64,1.31 -2.6,2.5l-14.79 18.48c-0.33,0.4 -0.9,1.22 -1.24,1.47z"/>
   <path class="fil0" d="M84.91 50.84c-1.16,1.73 -11.72,14.78 -13.34,16.76 -0.79,0.96 -1.53,1.88 -2.27,2.83 -0.74,0.95 -1.55,1.86 -2.23,2.87 0.88,0 8.53,0.11 9,-0.08 0.18,-0.07 17.48,-21.55 17.91,-22.38l-16.98 -21.23c-0.29,-0.35 -0.84,-1.22 -1.33,-1.22l-8.12 0c-0.85,0 -0.18,0.59 0.35,1.24l17.01 21.21z"/>
  </g>
 </g>
</svg>
