<?xml version="1.0" encoding="UTF-8"?>
<!-- Generator: visioncortex VTracer 0.6.3 -->
<svg version="1.1" xmlns="http://www.w3.org/2000/svg" width="1280" height="958">
<path d="M0 0 C1.54 -0.01 1.54 -0.01 3.11 -0.02 C4.24 -0.01 5.37 -0.01 6.53 -0 C8.31 -0.01 8.31 -0.01 10.13 -0.02 C13.38 -0.02 16.64 -0.02 19.89 -0.01 C23.3 -0.01 26.7 -0.01 30.11 -0.02 C35.83 -0.02 41.54 -0.02 47.26 -0.01 C53.88 0 60.49 0 67.11 -0.01 C72.78 -0.02 78.46 -0.02 84.13 -0.02 C87.52 -0.01 90.92 -0.01 94.31 -0.02 C98.09 -0.02 101.86 -0.02 105.64 -0 C106.77 -0.01 107.9 -0.01 109.06 -0.02 C110.6 -0.01 110.6 -0.01 112.17 0 C113.06 0 113.96 0 114.88 0 C117.02 0.25 117.02 0.25 119.02 2.25 C118.61 8.07 116.96 13.6 115.4 19.19 C115.13 20.15 114.87 21.11 114.6 22.09 C111.23 34.2 107.67 46.24 104.13 58.29 C101 68.92 97.91 79.56 95.02 90.25 C91.58 102.99 87.85 115.64 84.13 128.29 C80.73 139.82 77.42 151.36 74.29 162.97 C72.18 170.76 69.92 178.51 67.64 186.26 C65.33 194.1 63.16 201.97 61.06 209.86 C59.79 214.61 58.38 219.27 56.79 223.92 C55.33 228.33 54.06 232.79 52.77 237.25 C52.47 238.29 52.17 239.33 51.86 240.41 C48.8 250.96 45.84 261.53 42.9 272.11 C41.15 278.37 39.4 284.63 37.64 290.88 C36.19 296.07 34.74 301.27 33.31 306.47 C30.33 317.24 27.22 327.96 23.9 338.63 C21.37 346.74 18.99 354.85 16.88 363.08 C12.3 380.92 7.08 398.6 1.9 416.27 C0.43 421.26 -1.02 426.26 -2.48 431.25 C-4.22 437.24 -5.97 443.23 -7.73 449.22 C-10.97 460.26 -14.13 471.32 -17.21 482.41 C-19.58 490.87 -22.02 499.32 -24.48 507.75 C-28.41 521.23 -32.22 534.73 -35.98 548.25 C-39.65 561.44 -43.36 574.61 -47.21 587.74 C-49.7 596.23 -52.09 604.74 -54.48 613.25 C-58.5 627.62 -62.65 641.94 -66.86 656.25 C-70.27 667.82 -73.59 679.4 -76.71 691.05 C-78.46 697.5 -80.37 703.88 -82.35 710.25 C-85.11 719.13 -87.56 728.07 -89.92 737.07 C-92.71 747.71 -95.74 758.25 -99.04 768.75 C-101.74 777.37 -104.2 786.04 -106.61 794.75 C-108.33 800.96 -110.14 807.12 -112.08 813.26 C-112.94 816.12 -113.68 818.97 -114.38 821.86 C-115.91 828.02 -117.57 834.14 -119.29 840.25 C-119.74 841.86 -119.74 841.86 -120.2 843.5 C-122.2 850.57 -124.22 857.64 -126.29 864.69 C-126.65 865.95 -126.65 865.95 -127.03 867.24 C-128.75 873.02 -128.75 873.02 -130.98 875.25 C-133.16 875.5 -133.16 875.5 -135.93 875.49 C-137.5 875.5 -137.5 875.5 -139.1 875.5 C-140.83 875.49 -140.83 875.49 -142.59 875.48 C-144.4 875.48 -144.4 875.48 -146.25 875.48 C-149.58 875.48 -152.9 875.47 -156.22 875.46 C-159.69 875.44 -163.16 875.44 -166.63 875.44 C-173.2 875.43 -179.78 875.42 -186.35 875.4 C-193.83 875.38 -201.32 875.36 -208.8 875.35 C-224.19 875.33 -239.59 875.3 -254.98 875.25 C-255.85 871.36 -255.91 868.9 -254.87 865.02 C-254.61 864.03 -254.35 863.04 -254.08 862.03 C-253.8 861.01 -253.52 859.99 -253.23 858.94 C-252.96 857.93 -252.7 856.93 -252.42 855.89 C-251.27 851.61 -250.1 847.4 -248.46 843.27 C-246.82 839.07 -245.8 834.76 -244.74 830.37 C-243.52 825.38 -242.12 820.45 -240.73 815.5 C-240.28 813.89 -240.28 813.89 -239.81 812.24 C-236.89 801.89 -233.88 791.56 -230.85 781.24 C-229.1 775.25 -227.35 769.25 -225.61 763.26 C-224.14 758.23 -222.67 753.21 -221.19 748.18 C-218.37 738.56 -215.59 728.94 -212.98 719.25 C-209.54 706.52 -205.81 693.87 -202.08 681.21 C-198.96 670.58 -195.87 659.95 -192.98 649.25 C-189.82 637.54 -186.41 625.9 -182.98 614.25 C-179.2 601.39 -175.48 588.51 -171.89 575.59 C-169.15 565.79 -166.32 556.02 -163.48 546.25 C-160.09 534.58 -156.73 522.9 -153.47 511.19 C-151 502.28 -148.45 493.4 -145.9 484.52 C-143.51 476.18 -141.2 467.83 -138.97 459.44 C-137.91 455.51 -136.8 451.63 -135.48 447.77 C-133.85 442.96 -132.53 438.1 -131.23 433.19 C-127.2 418.23 -122.95 403.33 -118.23 388.57 C-116.8 384.05 -115.55 379.57 -114.54 374.94 C-113.39 369.68 -111.89 364.62 -110.23 359.5 C-106.8 348.91 -103.83 338.21 -100.87 327.48 C-99.42 322.23 -97.95 316.99 -96.48 311.75 C-94.72 305.49 -92.97 299.23 -91.23 292.97 C-87.53 279.7 -83.73 266.46 -79.85 253.24 C-78.39 248.24 -76.93 243.25 -75.48 238.25 C-73.73 232.26 -71.99 226.28 -70.23 220.29 C-67.04 209.41 -63.92 198.52 -60.89 187.59 C-58.15 177.79 -55.32 168.02 -52.48 158.25 C-48.23 143.61 -44.06 128.95 -39.98 114.25 C-36.51 101.75 -33.02 89.25 -29.24 76.83 C-26.96 69.29 -24.84 61.71 -22.73 54.12 C-19.53 42.6 -16.26 31.11 -12.93 19.62 C-12.25 17.21 -11.59 14.8 -10.96 12.38 C-10.62 11.12 -10.28 9.85 -9.93 8.55 C-9.63 7.39 -9.32 6.23 -9.01 5.04 C-7.26 0.33 -4.59 0 0 0 Z " fill="#000302" transform="translate(708.9788970947266,61.74603271484375)"/>
<path d="M0 0 C1.04 -0 2.08 -0.01 3.15 -0.01 C4.29 -0 5.42 0.01 6.59 0.02 C8.39 0.02 8.39 0.02 10.23 0.02 C13.52 0.02 16.81 0.04 20.09 0.06 C23.53 0.08 26.97 0.08 30.4 0.08 C36.91 0.09 43.41 0.11 49.92 0.14 C57.33 0.18 64.73 0.19 72.14 0.21 C87.38 0.24 102.61 0.29 117.85 0.36 C118.43 2.21 118.43 2.21 118.85 4.36 C117.49 6.72 117.49 6.72 115.54 9.11 C114.58 10.31 114.58 10.31 113.61 11.53 C112.74 12.44 112.74 12.44 111.85 13.36 C111.19 13.36 110.53 13.36 109.85 13.36 C109.59 14.1 109.33 14.85 109.07 15.61 C107.8 18.47 106.49 20.11 104.35 22.36 C100.64 26.4 97.29 30.63 93.98 35 C90.39 39.72 86.64 44.3 82.85 48.86 C77.91 54.82 73.12 60.85 68.44 67.01 C64.76 71.82 60.9 76.48 57.05 81.16 C56.52 81.81 55.99 82.45 55.44 83.12 C54.96 83.7 54.49 84.28 54 84.87 C52.76 86.38 52.76 86.38 51.85 88.36 C51.19 88.36 50.53 88.36 49.85 88.36 C49.19 90.01 48.53 91.66 47.85 93.36 C47.19 93.36 46.53 93.36 45.85 93.36 C45.51 94.13 45.51 94.13 45.16 94.92 C43.37 98.26 41.35 101.51 38.85 104.36 C38.19 104.36 37.53 104.36 36.85 104.36 C36.58 105.1 36.31 105.85 36.04 106.61 C34.9 109.25 33.76 111.22 31.85 113.36 C31.19 113.36 30.53 113.36 29.85 113.36 C29.46 114.48 29.46 114.48 29.06 115.61 C27.81 118.45 26.54 120.07 24.41 122.3 C20.97 126.05 17.78 129.91 14.66 133.92 C10.03 139.88 5.29 145.74 0.5 151.57 C-3.45 156.41 -7.13 161.37 -10.66 166.52 C-11.15 167.13 -11.64 167.73 -12.15 168.36 C-12.81 168.36 -13.47 168.36 -14.15 168.36 C-14.81 170.01 -15.47 171.66 -16.15 173.36 C-16.81 173.36 -17.47 173.36 -18.15 173.36 C-18.54 174.22 -18.54 174.22 -18.94 175.09 C-20.26 177.57 -21.8 179.56 -23.59 181.74 C-27.1 186.06 -30.58 190.42 -34.03 194.8 C-34.74 195.7 -34.74 195.7 -35.47 196.63 C-37.46 199.16 -39.36 201.68 -41.15 204.36 C-41.81 204.36 -42.47 204.36 -43.15 204.36 C-43.41 205.1 -43.67 205.85 -43.93 206.61 C-45.2 209.47 -46.51 211.11 -48.65 213.36 C-52 217.01 -55.1 220.79 -58.09 224.74 C-61.89 229.74 -65.8 234.63 -69.8 239.48 C-72.94 243.33 -76 247.25 -79.06 251.16 C-82.62 255.71 -86.27 260.16 -89.94 264.61 C-93.2 268.68 -96.26 272.89 -99.3 277.12 C-99.91 277.86 -100.52 278.6 -101.15 279.36 C-101.81 279.36 -102.47 279.36 -103.15 279.36 C-103.41 280.1 -103.66 280.84 -103.92 281.6 C-105.22 284.51 -106.59 286.2 -108.78 288.49 C-112.78 292.81 -116.15 297.42 -119.49 302.27 C-120.04 302.96 -120.58 303.65 -121.15 304.36 C-121.81 304.36 -122.47 304.36 -123.15 304.36 C-123.44 304.96 -123.73 305.56 -124.03 306.17 C-125.15 308.36 -125.15 308.36 -127.15 311.36 C-126.8 314.2 -126.06 316.64 -125.15 319.36 C-124.49 319.36 -123.83 319.36 -123.15 319.36 C-121.55 321.26 -120.06 323.17 -118.59 325.17 C-117.69 326.37 -116.79 327.56 -115.89 328.75 C-115.44 329.36 -114.98 329.96 -114.51 330.58 C-111.79 334.14 -108.92 337.57 -106.06 341.02 C-101.15 347.04 -101.15 347.04 -101.15 349.36 C-100.49 349.36 -99.83 349.36 -99.15 349.36 C-97.45 351.39 -95.85 353.42 -94.28 355.55 C-93.4 356.71 -92.53 357.87 -91.66 359.03 C-91.24 359.59 -90.82 360.16 -90.39 360.74 C-89.24 362.24 -88.04 363.7 -86.83 365.16 C-85.15 367.36 -85.15 367.36 -85.15 369.36 C-84.49 369.36 -83.83 369.36 -83.15 369.36 C-81.63 371.16 -80.23 372.97 -78.84 374.86 C-74.9 380.1 -70.86 385.23 -66.71 390.3 C-62.66 395.26 -58.65 400.24 -54.71 405.3 C-50.59 410.58 -46.36 415.77 -42.09 420.92 C-37 427.06 -32.06 433.28 -27.24 439.63 C-25.82 441.48 -24.37 443.3 -22.88 445.1 C-21.15 447.36 -21.15 447.36 -21.15 449.36 C-20.49 449.36 -19.83 449.36 -19.15 449.36 C-17.42 451.26 -17.42 451.26 -15.53 453.74 C-14.89 454.55 -14.26 455.36 -13.61 456.2 C-12.15 458.36 -12.15 458.36 -12.15 460.36 C-11.49 460.36 -10.83 460.36 -10.15 460.36 C-8.45 462.39 -6.85 464.42 -5.28 466.55 C-4.4 467.71 -3.53 468.87 -2.66 470.03 C-2.24 470.59 -1.82 471.16 -1.39 471.74 C-0.24 473.24 0.96 474.7 2.17 476.16 C3.85 478.36 3.85 478.36 3.85 480.36 C4.51 480.36 5.17 480.36 5.85 480.36 C7.13 481.83 7.13 481.83 8.57 483.86 C11.67 488.13 14.94 492.22 18.29 496.3 C25.16 504.72 25.16 504.72 28.35 508.86 C32.24 513.92 36.28 518.84 40.32 523.78 C47.85 533 47.85 533 47.85 535.36 C48.51 535.36 49.17 535.36 49.85 535.36 C51.47 537.29 52.98 539.21 54.47 541.24 C55.37 542.43 56.27 543.62 57.16 544.81 C57.83 545.71 57.83 545.71 58.52 546.62 C61.07 549.96 63.77 553.2 66.45 556.43 C67.85 558.36 67.85 558.36 67.85 560.36 C68.51 560.36 69.17 560.36 69.85 560.36 C71.47 562.29 72.98 564.21 74.47 566.24 C75.37 567.43 76.27 568.62 77.16 569.81 C77.83 570.71 77.83 570.71 78.52 571.62 C81.07 574.96 83.77 578.2 86.45 581.43 C87.85 583.36 87.85 583.36 87.85 585.36 C88.51 585.36 89.17 585.36 89.85 585.36 C91.45 587.26 92.94 589.17 94.41 591.17 C95.32 592.38 96.23 593.58 97.13 594.79 C97.82 595.69 97.82 595.69 98.52 596.62 C100.4 599.08 102.37 601.47 104.35 603.86 C107.75 608.01 111.14 612.16 114.47 616.36 C114.92 616.91 115.38 617.47 115.84 618.03 C117.08 619.61 117.08 619.61 118.85 622.36 C118.52 623.35 118.19 624.34 117.85 625.36 C101.78 625.74 85.71 626.02 69.63 626.19 C62.16 626.27 54.7 626.38 47.24 626.57 C40.72 626.73 34.22 626.83 27.7 626.87 C24.26 626.89 20.82 626.94 17.37 627.05 C-5.24 627.74 -5.24 627.74 -11.81 621.76 C-20.15 612.5 -20.15 612.5 -20.15 607.36 C-20.81 607.36 -21.47 607.36 -22.15 607.36 C-23.69 605.54 -25.11 603.72 -26.53 601.8 C-27.41 600.61 -28.31 599.43 -29.2 598.24 C-29.67 597.61 -30.14 596.99 -30.63 596.34 C-33.79 592.22 -37.09 588.22 -40.39 584.21 C-44.15 579.58 -44.15 579.58 -44.15 577.36 C-44.81 577.36 -45.47 577.36 -46.15 577.36 C-47.34 576 -47.34 576 -48.71 574.05 C-52 569.51 -55.53 565.2 -59.1 560.88 C-64.15 554.68 -64.15 554.68 -64.15 552.36 C-64.81 552.36 -65.47 552.36 -66.15 552.36 C-67.77 550.44 -69.28 548.51 -70.78 546.49 C-71.67 545.29 -72.57 544.1 -73.46 542.91 C-73.91 542.31 -74.36 541.72 -74.82 541.1 C-77.37 537.76 -80.07 534.53 -82.75 531.29 C-84.15 529.36 -84.15 529.36 -84.15 527.36 C-84.81 527.36 -85.47 527.36 -86.15 527.36 C-87.67 525.56 -89.07 523.76 -90.46 521.86 C-94.4 516.62 -98.44 511.49 -102.59 506.42 C-107.74 500.12 -112.8 493.76 -117.81 487.35 C-119.33 485.41 -120.88 483.49 -122.46 481.59 C-124.15 479.36 -124.15 479.36 -124.15 477.36 C-124.81 477.36 -125.47 477.36 -126.15 477.36 C-127.77 475.44 -129.28 473.51 -130.78 471.49 C-131.67 470.29 -132.57 469.1 -133.46 467.91 C-133.91 467.31 -134.36 466.72 -134.82 466.1 C-137.37 462.76 -140.07 459.53 -142.75 456.29 C-144.15 454.36 -144.15 454.36 -144.15 452.36 C-144.81 452.36 -145.47 452.36 -146.15 452.36 C-147.63 450.6 -149.03 448.77 -150.4 446.92 C-154.51 441.44 -158.77 436.12 -163.15 430.86 C-167.25 425.93 -171.27 420.97 -175.15 415.86 C-179.67 409.91 -184.4 404.16 -189.17 398.4 C-193.26 393.46 -197.28 388.48 -201.15 383.36 C-201.7 382.67 -202.26 381.97 -202.83 381.26 C-204.15 379.36 -204.15 379.36 -204.15 377.36 C-204.81 377.36 -205.47 377.36 -206.15 377.36 C-207.88 375.46 -207.88 375.46 -209.78 372.99 C-210.41 372.17 -211.04 371.36 -211.69 370.52 C-213.15 368.36 -213.15 368.36 -213.15 366.36 C-213.81 366.36 -214.47 366.36 -215.15 366.36 C-215.81 364.71 -216.47 363.06 -217.15 361.36 C-217.81 361.36 -218.47 361.36 -219.15 361.36 C-220.86 359.33 -222.45 357.3 -224.03 355.17 C-224.9 354.01 -225.77 352.85 -226.64 351.69 C-227.06 351.13 -227.48 350.57 -227.92 349.98 C-229.06 348.48 -230.26 347.02 -231.47 345.56 C-233.15 343.36 -233.15 343.36 -233.15 341.36 C-233.81 341.36 -234.47 341.36 -235.15 341.36 C-236.42 339.89 -236.42 339.89 -237.85 337.86 C-239.98 334.92 -242.18 332.09 -244.55 329.33 C-245.11 328.66 -245.67 328 -246.25 327.31 C-247.4 325.96 -248.56 324.61 -249.73 323.27 C-253.21 319.13 -255.61 316.02 -255.15 310.36 C-253.39 307.26 -251.15 304.7 -248.78 302.05 C-247.56 300.64 -246.34 299.22 -245.13 297.81 C-244.31 296.89 -244.31 296.89 -243.47 295.95 C-242.07 294.38 -242.07 294.38 -241.15 292.36 C-240.49 292.36 -239.83 292.36 -239.15 292.36 C-238.49 290.71 -237.83 289.06 -237.15 287.36 C-236.49 287.36 -235.83 287.36 -235.15 287.36 C-234.92 286.85 -234.7 286.33 -234.46 285.8 C-232.67 282.47 -230.65 279.21 -228.15 276.36 C-227.49 276.36 -226.83 276.36 -226.15 276.36 C-225.89 275.62 -225.63 274.88 -225.37 274.11 C-224.1 271.25 -222.79 269.61 -220.65 267.36 C-216.92 263.29 -213.55 259.05 -210.21 254.65 C-206.8 250.17 -203.28 245.78 -199.71 241.42 C-195.49 236.25 -191.29 231.05 -187.15 225.8 C-186.72 225.25 -186.29 224.7 -185.84 224.14 C-183.62 221.3 -181.5 218.43 -179.46 215.46 C-178.7 214.44 -177.94 213.41 -177.15 212.36 C-176.49 212.36 -175.83 212.36 -175.15 212.36 C-174.91 211.83 -174.68 211.3 -174.43 210.75 C-172.78 207.66 -170.75 204.91 -168.65 202.11 C-168.25 201.56 -167.84 201 -167.43 200.43 C-166.39 199.04 -165.27 197.69 -164.15 196.36 C-163.49 196.36 -162.83 196.36 -162.15 196.36 C-161.88 195.8 -161.61 195.25 -161.34 194.67 C-160.04 192.15 -158.73 189.72 -157.15 187.36 C-156.49 187.36 -155.83 187.36 -155.15 187.36 C-154.92 186.85 -154.7 186.33 -154.46 185.8 C-152.67 182.47 -150.65 179.21 -148.15 176.36 C-147.49 176.36 -146.83 176.36 -146.15 176.36 C-145.89 175.62 -145.63 174.88 -145.37 174.11 C-144.1 171.25 -142.79 169.61 -140.65 167.36 C-137.3 163.71 -134.2 159.93 -131.21 155.99 C-127.41 150.98 -123.5 146.09 -119.5 141.24 C-116.36 137.39 -113.3 133.47 -110.24 129.56 C-106.69 125.02 -103.03 120.56 -99.36 116.11 C-96.1 112.05 -93.05 107.83 -90 103.6 C-89.39 102.86 -88.78 102.12 -88.15 101.36 C-87.49 101.36 -86.83 101.36 -86.15 101.36 C-85.49 99.71 -84.83 98.06 -84.15 96.36 C-83.49 96.36 -82.83 96.36 -82.15 96.36 C-81.81 95.59 -81.81 95.59 -81.46 94.8 C-79.67 91.47 -77.65 88.21 -75.15 85.36 C-74.49 85.36 -73.83 85.36 -73.15 85.36 C-72.88 84.62 -72.61 83.88 -72.34 83.11 C-71.2 80.47 -70.06 78.51 -68.15 76.36 C-67.49 76.36 -66.83 76.36 -66.15 76.36 C-65.81 75.57 -65.81 75.57 -65.47 74.77 C-63.69 71.52 -61.4 68.73 -59.09 65.86 C-56.17 62.2 -53.26 58.55 -50.49 54.77 C-49.88 53.94 -49.88 53.94 -49.26 53.09 C-48.14 51.56 -47.04 50.03 -45.93 48.49 C-45.05 47.44 -45.05 47.44 -44.15 46.36 C-43.49 46.36 -42.83 46.36 -42.15 46.36 C-41.9 45.62 -41.64 44.88 -41.38 44.12 C-40.09 41.22 -38.71 39.52 -36.53 37.24 C-32.53 32.91 -29.15 28.3 -25.81 23.45 C-24.99 22.42 -24.99 22.42 -24.15 21.36 C-23.49 21.36 -22.83 21.36 -22.15 21.36 C-21.93 20.85 -21.71 20.33 -21.49 19.8 C-19.6 16.35 -17.21 13.38 -14.78 10.3 C-14.29 9.67 -13.81 9.05 -13.31 8.41 C-12.84 7.8 -12.37 7.2 -11.88 6.58 C-11.45 6.03 -11.02 5.48 -10.58 4.92 C-7.28 1.32 -4.93 -0.02 0 0 Z " fill="#000302" transform="translate(272.15057373046875,186.6392364501953)"/>
<path d="M0 0 C1.02 -0.01 2.04 -0.01 3.1 -0.02 C4.22 -0.02 5.35 -0.03 6.51 -0.03 C7.69 -0.04 8.87 -0.04 10.09 -0.05 C14.02 -0.07 17.94 -0.08 21.87 -0.09 C23.22 -0.1 24.57 -0.1 25.92 -0.1 C32.27 -0.12 38.62 -0.14 44.97 -0.15 C52.3 -0.15 59.63 -0.18 66.96 -0.22 C72.62 -0.25 78.29 -0.27 83.95 -0.27 C87.33 -0.27 90.72 -0.28 94.1 -0.31 C97.88 -0.33 101.65 -0.33 105.43 -0.32 C107.11 -0.34 107.11 -0.34 108.82 -0.36 C116.41 -0.31 116.41 -0.31 120.28 2.05 C122.16 4.15 124 6.23 125.72 8.46 C126.41 9.34 127.1 10.22 127.8 11.12 C128.97 12.62 128.97 12.62 130.16 14.15 C131.59 15.93 133.02 17.72 134.45 19.5 C136.5 22.06 138.55 24.62 140.59 27.18 C141.65 28.51 142.71 29.83 143.77 31.16 C145.32 33.09 146.87 35.02 148.41 36.96 C149.13 37.85 149.13 37.85 149.86 38.76 C153.16 42.92 153.16 42.92 153.16 45.15 C153.82 45.15 154.48 45.15 155.16 45.15 C156.15 47.62 156.15 47.62 157.16 50.15 C157.82 50.15 158.48 50.15 159.16 50.15 C160.68 51.95 162.08 53.75 163.47 55.65 C168.15 61.9 173.04 67.95 178.05 73.94 C178.58 74.59 179.12 75.24 179.67 75.91 C180.39 76.77 180.39 76.77 181.13 77.66 C182.16 79.15 182.16 79.15 182.16 81.15 C182.82 81.15 183.48 81.15 184.16 81.15 C185.45 82.63 185.45 82.63 186.9 84.67 C189.93 88.85 193.13 92.85 196.41 96.83 C201.23 102.73 205.92 108.7 210.53 114.76 C212.53 117.36 214.59 119.91 216.67 122.44 C217.27 123.17 217.87 123.9 218.49 124.65 C219.67 126.09 220.86 127.52 222.05 128.94 C222.58 129.59 223.12 130.24 223.67 130.91 C224.15 131.49 224.63 132.06 225.13 132.66 C226.16 134.15 226.16 134.15 226.16 136.15 C226.82 136.15 227.48 136.15 228.16 136.15 C229.87 138.18 231.46 140.21 233.04 142.33 C233.91 143.5 234.78 144.66 235.65 145.82 C236.07 146.38 236.49 146.94 236.93 147.52 C238.07 149.03 239.27 150.49 240.48 151.95 C242.16 154.15 242.16 154.15 242.16 156.15 C242.82 156.15 243.48 156.15 244.16 156.15 C245.15 158.62 245.15 158.62 246.16 161.15 C246.82 161.15 247.48 161.15 248.16 161.15 C249.78 163.07 251.29 165 252.79 167.02 C253.7 168.23 254.61 169.44 255.52 170.64 C255.97 171.24 256.42 171.84 256.88 172.46 C258.58 174.7 260.33 176.9 262.1 179.08 C265.78 183.65 269.39 188.26 273 192.88 C276.76 197.68 280.64 202.38 284.58 207.04 C286.16 209.15 286.16 209.15 286.16 211.15 C286.82 211.15 287.48 211.15 288.16 211.15 C288.82 212.8 289.48 214.45 290.16 216.15 C290.82 216.15 291.48 216.15 292.16 216.15 C293.87 218.18 295.46 220.21 297.04 222.33 C297.91 223.5 298.78 224.66 299.65 225.82 C300.28 226.66 300.28 226.66 300.93 227.52 C302.07 229.03 303.27 230.49 304.48 231.95 C306.16 234.15 306.16 234.15 306.16 236.15 C306.82 236.15 307.48 236.15 308.16 236.15 C309.78 238.07 311.29 240 312.79 242.02 C313.68 243.21 314.58 244.41 315.47 245.6 C316.15 246.49 316.15 246.49 316.83 247.41 C319.39 250.75 322.08 253.98 324.76 257.22 C326.16 259.15 326.16 259.15 326.16 261.15 C326.82 261.15 327.48 261.15 328.16 261.15 C329.64 262.91 331.04 264.73 332.41 266.58 C336.52 272.06 340.78 277.38 345.16 282.65 C350.25 288.78 355.22 294.98 360.02 301.34 C361.37 303.11 362.75 304.85 364.18 306.55 C365.04 307.59 365.04 307.59 365.91 308.65 C366.4 309.21 366.89 309.78 367.4 310.37 C368.16 312.15 368.16 312.15 367.53 314.61 C366.11 317.25 364.6 319.11 362.54 321.27 C358.54 325.6 355.17 330.21 351.83 335.06 C351.28 335.75 350.73 336.44 350.16 337.15 C349.5 337.15 348.84 337.15 348.16 337.15 C347.9 337.89 347.65 338.63 347.38 339.4 C346.11 342.25 344.8 343.9 342.66 346.15 C339.31 349.8 336.21 353.58 333.22 357.52 C329.42 362.53 325.51 367.42 321.51 372.27 C318.37 376.12 315.31 380.03 312.25 383.95 C308.7 388.49 305.04 392.95 301.37 397.39 C298.11 401.46 295.06 405.68 292.01 409.91 C291.4 410.65 290.79 411.39 290.16 412.15 C289.5 412.15 288.84 412.15 288.16 412.15 C287.5 413.8 286.84 415.45 286.16 417.15 C285.5 417.15 284.84 417.15 284.16 417.15 C283.89 417.73 283.61 418.31 283.33 418.9 C281.36 422.69 278.72 425.99 276.16 429.4 C275.61 430.14 275.07 430.89 274.51 431.65 C273.98 432.36 273.45 433.06 272.91 433.79 C272.43 434.43 271.95 435.08 271.46 435.74 C271.03 436.21 270.6 436.67 270.16 437.15 C269.5 437.15 268.84 437.15 268.16 437.15 C267.82 437.94 267.82 437.94 267.47 438.75 C265.73 441.95 263.49 444.69 261.22 447.52 C260.22 448.78 259.22 450.04 258.22 451.3 C257.71 451.94 257.2 452.58 256.67 453.24 C255.26 455.03 253.85 456.82 252.45 458.62 C246.94 465.67 241.35 472.65 235.66 479.55 C233.11 482.67 230.68 485.8 228.4 489.12 C227.66 490.12 226.92 491.12 226.16 492.15 C225.5 492.15 224.84 492.15 224.16 492.15 C223.82 492.92 223.82 492.92 223.47 493.71 C221.68 497.04 219.66 500.29 217.16 503.15 C216.5 503.15 215.84 503.15 215.16 503.15 C214.89 503.89 214.63 504.63 214.35 505.4 C213.21 508.04 212.07 510 210.16 512.15 C209.5 512.15 208.84 512.15 208.16 512.15 C207.17 514.62 207.17 514.62 206.16 517.15 C205.5 517.15 204.84 517.15 204.16 517.15 C203.93 517.68 203.7 518.21 203.46 518.76 C201.75 521.9 199.58 524.61 197.35 527.4 C196.87 528.01 196.38 528.62 195.89 529.25 C191.68 534.54 187.39 539.78 183.09 545.01 C178.52 550.62 174.18 556.4 169.94 562.27 C168.73 563.93 167.45 565.54 166.16 567.15 C165.5 567.15 164.84 567.15 164.16 567.15 C163.17 569.62 163.17 569.62 162.16 572.15 C161.5 572.15 160.84 572.15 160.16 572.15 C159.89 572.73 159.61 573.31 159.33 573.9 C157.36 577.69 154.72 580.99 152.16 584.4 C151.61 585.14 151.07 585.89 150.51 586.65 C149.72 587.71 149.72 587.71 148.91 588.79 C148.43 589.43 147.95 590.08 147.46 590.74 C147.03 591.21 146.6 591.67 146.16 592.15 C145.5 592.15 144.84 592.15 144.16 592.15 C143.82 592.92 143.82 592.92 143.47 593.71 C141.68 597.04 139.66 600.29 137.16 603.15 C136.5 603.15 135.84 603.15 135.16 603.15 C134.91 603.88 134.66 604.61 134.4 605.37 C133.06 608.37 131.54 610.2 129.29 612.58 C126.88 615.19 124.67 617.7 122.79 620.71 C122.25 621.51 121.71 622.32 121.16 623.15 C120.5 623.15 119.84 623.15 119.16 623.15 C119.16 623.81 119.16 624.47 119.16 625.15 C77.58 625.15 36 625.15 -6.84 625.15 C-5.89 620.39 -5.27 618.94 -2.4 615.33 C-1.78 614.54 -1.17 613.75 -0.53 612.94 C0.31 612.05 0.31 612.05 1.16 611.15 C1.82 611.15 2.48 611.15 3.16 611.15 C3.39 610.62 3.62 610.08 3.86 609.54 C5.57 606.39 7.75 603.68 9.97 600.9 C10.69 600 10.69 600 11.41 599.08 C15.89 593.44 20.44 587.86 25.01 582.3 C25.54 581.66 26.06 581.01 26.61 580.35 C27.08 579.78 27.55 579.21 28.03 578.62 C29.25 577.13 29.25 577.13 30.16 575.15 C30.82 575.15 31.48 575.15 32.16 575.15 C32.42 574.4 32.68 573.66 32.94 572.9 C34.21 570.04 35.52 568.4 37.66 566.15 C41.01 562.5 44.11 558.72 47.1 554.77 C50.89 549.78 54.8 544.9 58.79 540.06 C61.59 536.62 64.35 533.14 67.1 529.65 C67.57 529.05 68.05 528.45 68.53 527.83 C70.5 525.32 72.39 522.81 74.16 520.15 C74.82 520.15 75.48 520.15 76.16 520.15 C76.43 519.57 76.71 518.99 76.99 518.39 C78.97 514.61 81.61 511.31 84.16 507.9 C84.71 507.15 85.25 506.41 85.82 505.64 C86.34 504.94 86.87 504.23 87.41 503.51 C87.89 502.86 88.37 502.22 88.86 501.55 C89.29 501.09 89.72 500.62 90.16 500.15 C90.82 500.15 91.48 500.15 92.16 500.15 C92.54 499.04 92.54 499.04 92.93 497.9 C94.23 495 95.6 493.31 97.79 491.02 C101.79 486.69 105.16 482.09 108.5 477.24 C109.32 476.2 109.32 476.2 110.16 475.15 C110.82 475.15 111.48 475.15 112.16 475.15 C112.5 474.36 112.5 474.36 112.85 473.55 C114.62 470.31 116.91 467.52 119.22 464.65 C122.14 460.99 125.05 457.33 127.82 453.56 C128.23 453.01 128.63 452.45 129.05 451.88 C130.17 450.35 131.28 448.82 132.38 447.28 C132.97 446.58 133.56 445.87 134.16 445.15 C134.82 445.15 135.48 445.15 136.16 445.15 C136.82 443.5 137.48 441.85 138.16 440.15 C138.82 440.15 139.48 440.15 140.16 440.15 C140.5 439.36 140.5 439.36 140.85 438.56 C142.62 435.31 144.88 432.48 147.16 429.58 C149.58 426.49 151.98 423.42 154.16 420.15 C154.82 420.15 155.48 420.15 156.16 420.15 C156.5 419.37 156.5 419.37 156.85 418.58 C158.64 415.25 160.66 412 163.16 409.15 C163.82 409.15 164.48 409.15 165.16 409.15 C165.42 408.4 165.68 407.66 165.94 406.9 C167.21 404.04 168.52 402.4 170.66 400.15 C174.39 396.08 177.77 391.83 181.1 387.44 C184.51 382.95 188.03 378.57 191.6 374.21 C195.83 369.03 200.03 363.84 204.16 358.58 C204.59 358.04 205.03 357.49 205.47 356.93 C207.7 354.09 209.81 351.22 211.85 348.24 C212.61 347.22 213.38 346.2 214.16 345.15 C214.82 345.15 215.48 345.15 216.16 345.15 C216.5 344.37 216.5 344.37 216.85 343.58 C218.64 340.25 220.66 337 223.16 334.15 C223.82 334.15 224.48 334.15 225.16 334.15 C225.82 332.5 226.48 330.85 227.16 329.15 C227.82 329.15 228.48 329.15 229.16 329.15 C229.41 328.6 229.65 328.05 229.9 327.49 C231.99 323.6 234.86 320.27 237.58 316.8 C239.35 314.37 239.35 314.37 239.11 312.07 C237.94 309.7 236.55 307.87 234.85 305.83 C234.13 304.96 233.41 304.08 232.66 303.17 C231.84 302.18 231.01 301.18 230.16 300.15 C228.22 297.74 226.28 295.32 224.35 292.9 C223.84 292.26 223.32 291.62 222.79 290.96 C219.41 286.73 216.06 282.48 212.72 278.21 C208.68 273.04 204.56 267.92 200.41 262.83 C192.75 253.42 192.75 253.42 189.85 249.77 C189.32 249.1 188.78 248.44 188.24 247.75 C187.16 246.15 187.16 246.15 187.16 244.15 C186.5 244.15 185.84 244.15 185.16 244.15 C183.43 242.25 183.43 242.25 181.54 239.77 C180.9 238.96 180.27 238.15 179.62 237.31 C178.16 235.15 178.16 235.15 178.16 233.15 C177.5 233.15 176.84 233.15 176.16 233.15 C175.17 230.67 175.17 230.67 174.16 228.15 C173.5 228.15 172.84 228.15 172.16 228.15 C170.46 226.12 168.86 224.09 167.29 221.96 C166.41 220.8 165.54 219.64 164.67 218.48 C164.25 217.92 163.83 217.35 163.4 216.77 C162.25 215.27 161.05 213.8 159.84 212.35 C158.16 210.15 158.16 210.15 158.16 208.15 C157.5 208.15 156.84 208.15 156.16 208.15 C154.87 206.67 154.87 206.67 153.43 204.63 C150.39 200.45 147.19 196.45 143.91 192.46 C139.09 186.57 134.4 180.6 129.79 174.53 C127.8 171.93 125.74 169.39 123.65 166.85 C123.05 166.12 122.45 165.39 121.84 164.64 C120.65 163.21 119.47 161.78 118.27 160.35 C117.74 159.7 117.2 159.05 116.65 158.39 C116.17 157.81 115.69 157.23 115.2 156.64 C114.16 155.15 114.16 155.15 114.16 153.15 C113.5 153.15 112.84 153.15 112.16 153.15 C110.46 151.12 108.86 149.09 107.29 146.96 C106.41 145.8 105.54 144.64 104.67 143.48 C104.25 142.92 103.83 142.35 103.4 141.77 C102.25 140.27 101.05 138.8 99.84 137.35 C98.16 135.15 98.16 135.15 98.16 133.15 C97.5 133.15 96.84 133.15 96.16 133.15 C95.17 130.67 95.17 130.67 94.16 128.15 C93.5 128.15 92.84 128.15 92.16 128.15 C90.64 126.35 89.24 124.54 87.85 122.65 C83.92 117.41 79.88 112.28 75.72 107.21 C71.09 101.53 66.51 95.82 62 90.04 C58.57 85.65 55.07 81.33 51.52 77.04 C50.16 75.15 50.16 75.15 50.16 73.15 C49.5 73.15 48.84 73.15 48.16 73.15 C46.46 71.12 44.86 69.09 43.29 66.96 C42.41 65.8 41.54 64.64 40.67 63.48 C40.25 62.92 39.83 62.35 39.4 61.77 C38.25 60.27 37.05 58.8 35.84 57.35 C34.16 55.15 34.16 55.15 34.16 53.15 C33.5 53.15 32.84 53.15 32.16 53.15 C30.43 51.25 30.43 51.25 28.54 48.77 C27.9 47.96 27.27 47.15 26.62 46.31 C25.16 44.15 25.16 44.15 25.16 42.15 C24.5 42.15 23.84 42.15 23.16 42.15 C21.87 40.67 21.87 40.67 20.42 38.62 C17.41 34.47 14.23 30.49 10.97 26.52 C8.7 23.73 6.43 20.94 4.16 18.15 C3.34 17.13 3.34 17.13 2.49 16.1 C0.94 14.18 -0.61 12.26 -2.15 10.33 C-2.62 9.75 -3.1 9.17 -3.59 8.58 C-6.84 4.49 -6.84 4.49 -6.84 1.15 C-4.38 -0.08 -2.75 0.01 0 0 Z " fill="#000302" transform="translate(896.8384552001953,186.8528289794922)"/>
</svg>
